<svg width="429" height="76" viewBox="0 0 429 76" fill="none" xmlns="http://www.w3.org/2000/svg">
<g clip-path="url(#clip0_914_2717)">
<path d="M375.813 75.4722H94.1203C86.9204 75.4722 81.079 69.6517 81.079 62.4775V12.9947C81.079 5.82055 86.9204 0 94.1203 0H375.813C377.47 0 379.09 0.50896 380.454 1.45108L426.892 33.6996C429.712 35.6542 429.712 39.8126 426.892 41.7672L380.454 74.0157C379.095 74.9633 377.476 75.4668 375.813 75.4668V75.4722Z" fill="#FFEC00"/>
<path d="M66.6521 0H9.09089C4.07013 0 0 4.05558 0 9.0584V66.4138C0 71.4166 4.07013 75.4722 9.09089 75.4722H66.6521C71.6728 75.4722 75.743 71.4166 75.743 66.4138V9.0584C75.743 4.05558 71.6728 0 66.6521 0Z" fill="#FFEC00"/>
<path d="M61.4193 9.6919L53.9422 11.7711C53.5727 11.8739 53.263 12.1176 53.062 12.4424C49.8071 17.6403 44.0417 20.8457 37.8742 20.8457C31.7068 20.8457 26.5066 17.9435 23.181 13.1896C22.8658 12.7402 22.1703 12.881 22.0562 13.4116L20.6434 19.8549C20.5673 20.1905 20.2358 20.4071 19.8935 20.3313L12.5578 18.7341C12.0144 18.6149 11.5905 19.2159 11.8894 19.6816C17.5515 28.4314 27.3705 33.8079 37.8688 33.8079C48.3671 33.8079 58.7186 28.139 64.2992 18.9669C64.5112 18.6204 64.5655 18.2034 64.4568 17.8136L62.4245 10.2658C62.305 9.82726 61.854 9.57278 61.4138 9.6919H61.4193Z" fill="#1D2235"/>
<path d="M37.8741 36.2228C35.5321 36.2228 33.2227 35.9683 30.9731 35.4918C30.0167 43.8301 27.1748 49.0226 20.7357 55.1842C20.2412 55.6553 20.5564 56.4891 21.241 56.5216L27.7997 56.814C28.229 56.8356 28.5659 57.1984 28.5442 57.6262L28.2562 64.091C28.2236 64.7895 29.0658 65.1739 29.5766 64.692C38.6892 55.9964 42.8407 47.8747 44.0144 35.638C42.0093 36.017 39.9553 36.2174 37.8741 36.2174V36.2228Z" fill="#1D2235"/>
<path d="M112.378 28.5505H102.815V18.2197H132.94V28.5505H123.376V57.8211H112.373V28.5505H112.378Z" fill="#1D2235"/>
<path d="M137.488 18.2197H148.492V57.8211H137.488V18.2197Z" fill="#1D2235"/>
<path d="M155.056 18.2197H166.06V47.4903H180.519V57.8211H155.061V18.2197H155.056Z" fill="#1D2235"/>
<path d="M184.779 18.2197H205.455C211.563 18.2197 216.345 22.5242 216.345 28.4909C216.345 31.9941 214.731 35.2049 212.313 36.8129C215.709 38.3073 218.133 42.4927 218.133 47.03C218.133 53.4029 213.237 57.8211 206.727 57.8211H184.779V18.2197ZM195.435 28.0902V32.9091H202.635C204.015 32.9091 205.053 31.875 205.053 30.4997C205.053 29.1244 204.015 28.0902 202.635 28.0902H195.435ZM195.435 42.2112V47.9505H203.961C205.575 47.9505 206.841 46.6889 206.841 45.0808C206.841 43.4727 205.575 42.2112 203.961 42.2112H195.435Z" fill="#1D2235"/>
<path d="M221.409 38.0204C221.409 26.3685 230.511 17.532 242.547 17.532C254.583 17.532 263.685 26.3739 263.685 38.0204C263.685 49.6669 254.583 58.5087 242.547 58.5087C230.511 58.5087 221.409 49.6723 221.409 38.0204ZM252.399 38.0204C252.399 32.3352 248.138 28.0903 242.547 28.0903C236.956 28.0903 232.695 32.3352 232.695 38.0204C232.695 43.7056 236.956 47.9505 242.547 47.9505C248.138 47.9505 252.399 43.7056 252.399 38.0204Z" fill="#1D2235"/>
<path d="M269.564 41.6914H266.282V34.344H269.564V18.2143H285.404C297.098 18.2143 305.852 26.7096 305.852 38.015C305.852 49.3204 297.098 57.8157 285.404 57.8157H269.564V41.686V41.6914ZM280.562 41.6914V47.4903H285.17C290.528 47.4903 294.56 43.4132 294.56 38.0204C294.56 32.6276 290.528 28.5505 285.17 28.5505H280.562V34.3494H284.942V41.6968H280.562V41.6914Z" fill="#1D2235"/>
<path d="M307.634 51.6215C307.634 47.7177 310.628 44.7343 314.606 44.7343C318.583 44.7343 321.577 47.7177 321.577 51.6215C321.577 55.5253 318.583 58.5087 314.606 58.5087C310.628 58.5087 307.634 55.5253 307.634 51.6215Z" fill="#1D2235"/>
<path d="M325.892 18.2197H336.896V57.8211H325.892V18.2197Z" fill="#1D2235"/>
<path d="M342.77 45.5411H354.061C354.061 47.3224 356.077 48.7573 358.555 48.7573C360.685 48.7573 362.527 47.7231 362.527 46.402C362.527 41.9838 343.346 43.7597 343.346 30.3318C343.346 22.6433 349.796 17.532 358.207 17.532C366.619 17.532 373.243 22.8707 373.243 29.9853H361.951C361.951 28.4368 360.283 27.2889 358.093 27.2889C356.251 27.2889 354.637 28.0902 354.637 29.4709C354.637 34.0624 373.819 31.3064 373.819 45.1404C373.819 53.235 367.081 58.5141 358.441 58.5141C349.801 58.5141 342.775 52.8344 342.775 45.5411H342.77Z" fill="#1D2235"/>
</g>
<defs>
<clipPath id="clip0_914_2717">
<rect width="429" height="75.4722" fill="white"/>
</clipPath>
</defs>
</svg>
